<svg xmlns="http://www.w3.org/2000/svg" viewBox="0 0 1200 630" role="img" aria-label="Lull. A puzzle to pass the time.">
  <rect width="1200" height="630" fill="#ebe9e6"/>
  <rect y="454" width="1200" height="176" fill="#2a2628"/>
  <path d="M342.2 436.9V429.4L348.2 428.8Q359.9 427.6 365.29999999999995 425.20000000000005Q370.7 422.8 372.35 416.20000000000005Q374.0 409.6 374.0 396.1V262.9Q374.0 249.4 372.35 242.8Q370.7 236.20000000000002 365.29999999999995 233.8Q359.9 231.4 348.2 230.20000000000002L342.2 229.6V222.1L387.2 223.0L431.29999999999995 222.1V229.6L422.9 230.5Q413.59999999999997 231.4 408.5 234.10000000000002Q403.4 236.8 401.45 242.65Q399.5 248.5 399.5 259.3V384.4Q399.5 402.1 402.2 411.4Q404.9 420.7 412.54999999999995 424.0Q420.2 427.3 434.59999999999997 427.3H457.09999999999997Q481.7 427.3 493.85 414.4Q506.0 401.5 508.4 373.0H515.0L512.0 436.9L386.59999999999997 436.0ZM596.3 439.3Q576.5 439.3 565.7 429.1Q554.9 418.9 554.9 400.6V336.4Q554.9 323.2 549.65 317.65Q544.4 312.1 531.5 312.1H528.5V305.20000000000005Q540.8 305.5 552.5 304.6Q564.2 303.70000000000005 575.9 301.6V399.4Q575.9 413.8 583.25 421.75Q590.6 429.7 603.8 429.7Q617.6 429.7 629.45 420.7Q641.3 411.7 647.9 396.1L655.1 397.6Q652.1 404.8 648.8 410.05Q645.5 415.3 641.6 419.5Q624.2 439.3 596.3 439.3ZM647.9 438.7V336.4Q647.9 323.2 642.65 317.65Q637.4 312.1 624.5 312.1H621.5V305.20000000000005Q633.8 305.5 645.5 304.6Q657.2 303.70000000000005 668.9 301.6V402.7Q668.9 417.7 674.3 423.4Q679.7 429.1 693.8 429.1V436.0Q682.4 436.0 674.75 436.15Q667.1 436.3 660.95 436.9Q654.8 437.5 647.9 438.7ZM701.3 436.9V430.0L706.0999999999999 429.4Q716.0 428.2 720.5 425.95Q725.0 423.7 726.3499999999999 417.7Q727.6999999999999 411.7 727.6999999999999 399.7V254.20000000000002Q727.6999999999999 240.70000000000002 722.3 235.3Q716.9 229.9 703.4 229.9H701.3V223.0Q716.3 223.0 727.25 222.25Q738.1999999999999 221.5 748.6999999999999 219.4V399.7Q748.6999999999999 411.7 750.05 417.7Q751.4 423.7 756.05 425.95Q760.6999999999999 428.2 770.3 429.4L775.0999999999999 430.0V436.9L738.1999999999999 436.0ZM784.0999999999999 436.9V430.0L788.8999999999999 429.4Q798.8 428.2 803.3 425.95Q807.8 423.7 809.1499999999999 417.7Q810.4999999999999 411.7 810.4999999999999 399.7V254.20000000000002Q810.4999999999999 240.70000000000002 805.0999999999999 235.3Q799.6999999999999 229.9 786.1999999999999 229.9H784.0999999999999V223.0Q799.0999999999999 223.0 810.05 222.25Q820.9999999999999 221.5 831.4999999999999 219.4V399.7Q831.4999999999999 411.7 832.8499999999999 417.7Q834.1999999999999 423.7 838.8499999999999 425.95Q843.4999999999999 428.2 853.0999999999999 429.4L857.8999999999999 430.0V436.9L820.9999999999999 436.0Z" fill="#201d1e"/>
  <rect x="900" y="454" width="30" height="30" fill="#e7a0a2"/>
  <path d="M325.598 548.0V545.562L330.29 545.24H331.302L336.638 545.562V548.0ZM328.496 548.0 339.352 516.95H343.216L354.164 548.0H349.242L339.95 520.86L338.892 525.414L331.21 548.0ZM333.694 538.202V535.764H347.448V538.202ZM343.63 548.0V545.562L349.748 545.24H351.036L357.062 545.562V548.0ZM370.586 558.672V556.464L375.83 556.004H377.118L382.822 556.464V558.672ZM374.312 558.672Q374.358 557.154 374.358 555.659Q374.358 554.164 374.381 552.669Q374.404 551.174 374.404 549.656V535.718Q374.404 534.522 374.381 533.51Q374.358 532.498 374.358 531.5550000000001Q374.358 530.612 374.312 529.6L370.49399999999997 529.416V527.392L376.474 525.092L377.716 525.322L378.268 529.554L378.544 529.646V543.998L378.314 544.136L378.498 550.024Q378.498 551.404 378.498 552.876Q378.498 554.348 378.52099999999996 555.774Q378.544 557.2 378.544 558.672ZM385.49 548.552Q383.88 548.552 382.63800000000003 548.046Q381.396 547.54 380.384 546.528Q379.372 545.516 378.498 544.044H376.75L376.98 540.824Q378.82 543.262 380.522 544.481Q382.224 545.7 384.294 545.7Q386.088 545.7 387.514 544.7570000000001Q388.94 543.814 389.791 541.8589999999999Q390.642 539.904 390.642 536.868Q390.642 532.314 388.91700000000003 530.037Q387.192 527.76 384.57 527.76Q383.282 527.76 382.086 528.2660000000001Q380.89 528.772 379.648 529.83Q378.406 530.888 376.93399999999997 532.59L376.75 529.462H378.498Q379.464 528.0360000000001 380.499 527.001Q381.534 525.966 382.845 525.3910000000001Q384.156 524.816 385.858 524.816Q388.48 524.816 390.573 526.196Q392.666 527.576 393.885 530.1980000000001Q395.104 532.82 395.104 536.592Q395.104 540.364 393.839 543.032Q392.574 545.7 390.41200000000003 547.126Q388.25 548.552 385.49 548.552ZM408.49 548.552Q405.27000000000004 548.552 403.56800000000004 546.62Q401.86600000000004 544.688 401.91200000000003 540.548L401.958 527.392L403.384 528.956L398.232 527.944V526.012L404.994 525.23L406.144 525.46L406.052 531.026V539.812Q406.052 542.618 407.01800000000003 543.8140000000001Q407.98400000000004 545.01 410.00800000000004 545.01Q411.204 545.01 412.46900000000005 544.6189999999999Q413.73400000000004 544.228 414.976 543.469Q416.218 542.71 417.41400000000004 541.698L417.78200000000004 543.768H416.494Q415.528 545.24 414.28600000000006 546.321Q413.04400000000004 547.402 411.595 547.9770000000001Q410.146 548.552 408.49 548.552ZM417.46000000000004 548.368 417.0 543.17 416.81600000000003 543.124 416.862 528.634 413.136 527.944V526.012L419.85200000000003 525.23L421.002 525.46L420.956 531.026V545.286L424.54400000000004 545.976V548.0ZM427.67199999999997 548.0V546.068L442.20799999999997 527.024L442.07 528.22L441.84 527.392L436.734 527.668H430.478L432.272 526.058L430.662 532.682L427.99399999999997 532.59L428.362 525.368H446.578V527.3L432.042 546.39L432.40999999999997 544.918V546.022L437.976 545.746H444.738L443.036 547.31L444.646 540.272H447.314L446.9 548.0ZM450.212 548.0V546.068L464.748 527.024L464.61 528.22L464.38 527.392L459.274 527.668H453.01800000000003L454.812 526.058L453.202 532.682L450.534 532.59L450.90200000000004 525.368H469.118V527.3L454.582 546.39L454.95000000000005 544.918V546.022L460.516 545.746H467.278L465.576 547.31L467.18600000000004 540.272H469.85400000000004L469.44 548.0ZM472.93600000000004 548.0V545.792L478.18000000000006 545.332H479.422L484.71200000000005 545.792V548.0ZM476.66200000000003 548.0Q476.708 546.344 476.708 544.6880000000001Q476.708 543.032 476.731 541.376Q476.754 539.72 476.754 538.11V518.376L472.752 517.686V515.754L479.744 514.19L480.98600000000005 514.374L480.89400000000006 520.216V538.11Q480.89400000000006 539.72 480.89400000000006 541.376Q480.89400000000006 543.032 480.91700000000003 544.6880000000001Q480.94000000000005 546.344 480.94000000000005 548.0ZM499.52400000000006 548.552Q496.07400000000007 548.552 493.61300000000006 547.149Q491.15200000000004 545.746 489.841 543.1469999999999Q488.53000000000003 540.548 488.53000000000003 537.006Q488.53000000000003 533.418 489.9100000000001 530.681Q491.2900000000001 527.944 493.72800000000007 526.38Q496.16600000000005 524.816 499.29400000000004 524.816Q502.1 524.816 504.1700000000001 525.8969999999999Q506.24000000000007 526.978 507.41300000000007 529.002Q508.58600000000007 531.026 508.58600000000007 533.832Q508.58600000000007 534.706 508.47100000000006 535.557Q508.35600000000005 536.408 508.2180000000001 536.96H490.9680000000001V534.798H503.02000000000004Q503.98600000000005 534.476 504.26200000000006 533.8779999999999Q504.53800000000007 533.28 504.53800000000007 532.498Q504.53800000000007 530.704 503.91700000000003 529.531Q503.29600000000005 528.358 502.12300000000005 527.7829999999999Q500.95000000000005 527.208 499.29400000000004 527.208Q497.54600000000005 527.208 496.07400000000007 528.174Q494.60200000000003 529.14 493.72800000000007 531.187Q492.85400000000004 533.234 492.85400000000004 536.546Q492.85400000000004 539.352 493.797 541.3530000000001Q494.74000000000007 543.354 496.46500000000003 544.412Q498.19000000000005 545.47 500.49000000000007 545.47Q502.92800000000005 545.47 504.56100000000004 544.5730000000001Q506.1940000000001 543.676 507.482 542.204L508.9080000000001 543.354Q507.8960000000001 544.872 506.65400000000005 546.068Q505.41200000000003 547.264 503.71000000000004 547.908Q502.00800000000004 548.552 499.52400000000006 548.552ZM528.8260000000001 528.0360000000001V525.368H537.2900000000001V528.0360000000001ZM532.4140000000001 548.46Q529.8380000000001 548.46 528.2510000000001 547.034Q526.6640000000001 545.608 526.6640000000001 542.618Q526.6640000000001 541.79 526.6640000000001 540.9849999999999Q526.6640000000001 540.18 526.6640000000001 539.122V528.0360000000001H522.6620000000001V525.874L528.5500000000001 525.138L526.8480000000001 526.564L528.3200000000002 519.02H531.1720000000001L530.6660000000002 526.932L530.8500000000001 527.392V542.204Q530.8500000000001 544.044 531.6090000000002 544.826Q532.3680000000002 545.608 533.7020000000001 545.608Q534.5760000000001 545.608 535.3120000000001 545.332Q536.0480000000001 545.056 536.7380000000002 544.688L537.7960000000002 546.436Q537.2900000000001 546.942 536.508 547.425Q535.7260000000001 547.908 534.6910000000001 548.184Q533.6560000000002 548.46 532.4140000000001 548.46ZM551.5960000000001 548.552Q548.6980000000001 548.552 546.1450000000001 547.2180000000001Q543.5920000000001 545.884 542.0280000000001 543.239Q540.4640000000002 540.594 540.4640000000002 536.776Q540.4640000000002 532.958 542.0280000000001 530.267Q543.5920000000001 527.576 546.1450000000001 526.196Q548.6980000000001 524.816 551.5960000000001 524.816Q554.4940000000001 524.816 557.0470000000001 526.173Q559.6000000000001 527.53 561.1870000000001 530.175Q562.7740000000001 532.82 562.7740000000001 536.638Q562.7740000000001 540.456 561.1870000000001 543.124Q559.6000000000001 545.792 557.0470000000001 547.172Q554.4940000000001 548.552 551.5960000000001 548.552ZM551.5960000000001 546.16Q553.7120000000001 546.16 555.1840000000002 545.102Q556.6560000000002 544.044 557.4380000000001 541.9739999999999Q558.2200000000001 539.904 558.2200000000001 536.776Q558.2200000000001 533.602 557.4380000000001 531.486Q556.6560000000002 529.37 555.1840000000002 528.312Q553.7120000000001 527.254 551.5960000000001 527.254Q549.5260000000002 527.254 548.0540000000001 528.312Q546.5820000000001 529.37 545.8000000000002 531.463Q545.0180000000001 533.556 545.0180000000001 536.684Q545.0180000000001 539.858 545.8000000000002 541.951Q546.5820000000001 544.044 548.0540000000001 545.102Q549.5260000000002 546.16 551.5960000000001 546.16ZM577.7700000000002 558.672V556.464L583.0140000000002 556.004H584.3020000000002L590.0060000000002 556.464V558.672ZM581.4960000000002 558.672Q581.5420000000001 557.154 581.5420000000001 555.659Q581.5420000000001 554.164 581.5650000000002 552.669Q581.5880000000002 551.174 581.5880000000002 549.656V535.718Q581.5880000000002 534.522 581.5650000000002 533.51Q581.5420000000001 532.498 581.5420000000001 531.5550000000001Q581.5420000000001 530.612 581.4960000000002 529.6L577.6780000000002 529.416V527.392L583.6580000000002 525.092L584.9000000000002 525.322L585.4520000000002 529.554L585.7280000000002 529.646V543.998L585.4980000000002 544.136L585.6820000000002 550.024Q585.6820000000002 551.404 585.6820000000002 552.876Q585.6820000000002 554.348 585.7050000000002 555.774Q585.7280000000002 557.2 585.7280000000002 558.672ZM592.6740000000002 548.552Q591.0640000000002 548.552 589.8220000000001 548.046Q588.5800000000002 547.54 587.5680000000002 546.528Q586.5560000000002 545.516 585.6820000000002 544.044H583.9340000000002L584.1640000000002 540.824Q586.0040000000002 543.262 587.7060000000002 544.481Q589.4080000000002 545.7 591.4780000000002 545.7Q593.2720000000002 545.7 594.6980000000002 544.7570000000001Q596.1240000000003 543.814 596.9750000000003 541.8589999999999Q597.8260000000002 539.904 597.8260000000002 536.868Q597.8260000000002 532.314 596.1010000000002 530.037Q594.3760000000002 527.76 591.7540000000002 527.76Q590.4660000000002 527.76 589.2700000000002 528.2660000000001Q588.0740000000002 528.772 586.8320000000001 529.83Q585.5900000000001 530.888 584.1180000000002 532.59L583.9340000000002 529.462H585.6820000000002Q586.6480000000001 528.0360000000001 587.6830000000002 527.001Q588.7180000000002 525.966 590.0290000000002 525.3910000000001Q591.3400000000001 524.816 593.0420000000001 524.816Q595.6640000000002 524.816 597.7570000000002 526.196Q599.8500000000001 527.576 601.0690000000002 530.1980000000001Q602.2880000000002 532.82 602.2880000000002 536.592Q602.2880000000002 540.364 601.0230000000001 543.032Q599.7580000000002 545.7 597.5960000000002 547.126Q595.4340000000002 548.552 592.6740000000002 548.552ZM612.9600000000002 548.644Q610.3380000000002 548.644 608.4750000000001 547.126Q606.6120000000002 545.608 606.6120000000002 542.664Q606.6120000000002 540.962 607.3250000000002 539.674Q608.0380000000001 538.386 609.6710000000002 537.374Q611.3040000000002 536.362 614.1100000000001 535.58Q615.4440000000002 535.166 616.7550000000001 534.821Q618.0660000000001 534.476 619.3770000000002 534.108Q620.6880000000001 533.74 621.9760000000001 533.372V535.258Q620.3200000000002 535.764 618.6640000000002 536.293Q617.0080000000002 536.822 615.3520000000002 537.374Q613.4660000000001 537.926 612.5000000000001 538.639Q611.5340000000001 539.352 611.1890000000001 540.1569999999999Q610.8440000000002 540.962 610.8440000000002 541.882Q610.8440000000002 543.584 611.9020000000002 544.527Q612.9600000000002 545.47 614.7080000000002 545.47Q615.8580000000002 545.47 616.7780000000002 545.056Q617.6980000000002 544.642 618.7560000000002 543.791Q619.8140000000002 542.94 621.2400000000001 541.698L621.5620000000001 544.32H619.9520000000001Q619.0320000000002 545.516 618.0890000000002 546.505Q617.1460000000002 547.494 615.9270000000001 548.069Q614.7080000000002 548.644 612.9600000000002 548.644ZM624.8740000000001 548.506Q622.8960000000002 548.506 621.6770000000001 547.218Q620.4580000000002 545.93 620.3660000000002 543.4L620.2740000000001 543.308V532.774Q620.2740000000001 530.658 619.7680000000001 529.4159999999999Q619.2620000000002 528.174 618.1810000000002 527.668Q617.1000000000001 527.162 615.4440000000002 527.162Q614.2940000000002 527.162 613.2360000000001 527.346Q612.1780000000001 527.53 611.0280000000001 528.0360000000001L612.8680000000002 526.196L612.1320000000002 530.336Q611.9020000000002 531.716 611.2580000000002 532.36Q610.6140000000001 533.004 609.5560000000002 533.004Q608.4520000000001 533.004 607.8770000000002 532.4290000000001Q607.3020000000001 531.854 607.1640000000002 531.072Q607.7620000000002 528.22 610.2920000000001 526.518Q612.8220000000001 524.816 616.6400000000002 524.816Q619.0320000000002 524.816 620.7800000000002 525.598Q622.5280000000001 526.38 623.4710000000002 528.105Q624.4140000000002 529.83 624.4140000000002 532.774V542.986Q624.4140000000002 544.412 624.9200000000002 545.033Q625.4260000000002 545.654 626.3460000000001 545.654Q626.9440000000002 545.654 627.3810000000002 545.447Q627.8180000000002 545.24 628.1860000000001 544.964L628.9220000000001 546.574Q628.2320000000002 547.448 627.2430000000002 547.977Q626.2540000000001 548.506 624.8740000000001 548.506ZM639.3180000000001 548.552Q637.0180000000001 548.552 635.1320000000001 548.115Q633.2460000000001 547.678 631.7280000000002 546.942L631.5440000000001 541.376H634.2580000000002L635.5000000000001 546.988H633.2920000000001V544.688Q634.3960000000001 545.424 635.96 545.861Q637.5240000000001 546.298 639.3640000000001 546.298Q641.2040000000002 546.298 642.3310000000001 545.7919999999999Q643.4580000000001 545.286 643.9870000000001 544.435Q644.5160000000001 543.584 644.5160000000001 542.572Q644.5160000000001 541.054 643.4580000000001 540.1800000000001Q642.4000000000001 539.306 640.1000000000001 538.57L638.5820000000001 538.018Q636.4200000000001 537.328 634.902 536.431Q633.3840000000001 535.534 632.5790000000002 534.2919999999999Q631.7740000000001 533.05 631.7740000000001 531.348Q631.7740000000001 529.508 632.8090000000002 528.013Q633.8440000000002 526.518 635.7990000000002 525.667Q637.7540000000001 524.816 640.4220000000001 524.816Q642.4460000000001 524.816 644.2400000000001 525.2760000000001Q646.0340000000001 525.736 647.3680000000002 526.472L647.2760000000002 531.67H644.6080000000002L643.5960000000001 526.656H645.4820000000001V528.542Q644.3780000000002 527.806 643.1130000000002 527.461Q641.8480000000002 527.116 640.4220000000001 527.116Q638.0760000000001 527.116 636.9490000000001 528.0360000000001Q635.8220000000001 528.956 635.8220000000001 530.382Q635.8220000000001 531.808 636.8110000000001 532.613Q637.8000000000002 533.418 640.1920000000001 534.246L641.3880000000001 534.66Q643.8260000000001 535.442 645.4590000000001 536.454Q647.0920000000001 537.466 647.8740000000001 538.731Q648.6560000000002 539.996 648.6560000000002 541.698Q648.6560000000002 543.63 647.5520000000001 545.171Q646.4480000000001 546.712 644.3780000000002 547.6320000000001Q642.3080000000001 548.552 639.3180000000001 548.552ZM660.7080000000001 548.552Q658.4080000000001 548.552 656.5220000000002 548.115Q654.6360000000001 547.678 653.1180000000002 546.942L652.9340000000001 541.376H655.6480000000001L656.8900000000001 546.988H654.6820000000001V544.688Q655.7860000000001 545.424 657.3500000000001 545.861Q658.9140000000001 546.298 660.7540000000001 546.298Q662.5940000000002 546.298 663.7210000000001 545.7919999999999Q664.8480000000001 545.286 665.3770000000001 544.435Q665.9060000000001 543.584 665.9060000000001 542.572Q665.9060000000001 541.054 664.8480000000001 540.1800000000001Q663.7900000000001 539.306 661.4900000000001 538.57L659.9720000000001 538.018Q657.8100000000001 537.328 656.2920000000001 536.431Q654.7740000000001 535.534 653.969 534.2919999999999Q653.1640000000001 533.05 653.1640000000001 531.348Q653.1640000000001 529.508 654.1990000000001 528.013Q655.2340000000002 526.518 657.1890000000001 525.667Q659.1440000000001 524.816 661.8120000000001 524.816Q663.8360000000001 524.816 665.6300000000001 525.2760000000001Q667.4240000000001 525.736 668.7580000000002 526.472L668.6660000000002 531.67H665.9980000000002L664.9860000000001 526.656H666.8720000000001V528.542Q665.7680000000001 527.806 664.5030000000002 527.461Q663.238 527.116 661.8120000000001 527.116Q659.4660000000001 527.116 658.3390000000002 528.0360000000001Q657.2120000000001 528.956 657.2120000000001 530.382Q657.2120000000001 531.808 658.2010000000001 532.613Q659.1900000000002 533.418 661.5820000000001 534.246L662.7780000000001 534.66Q665.2160000000001 535.442 666.8490000000002 536.454Q668.4820000000001 537.466 669.2640000000001 538.731Q670.0460000000002 539.996 670.0460000000002 541.698Q670.0460000000002 543.63 668.9420000000001 545.171Q667.8380000000001 546.712 665.768 547.6320000000001Q663.6980000000001 548.552 660.7080000000001 548.552ZM690.0560000000002 528.0360000000001V525.368H698.5200000000001V528.0360000000001ZM693.6440000000001 548.46Q691.0680000000001 548.46 689.4810000000001 547.034Q687.8940000000001 545.608 687.8940000000001 542.618Q687.8940000000001 541.79 687.8940000000001 540.9849999999999Q687.8940000000001 540.18 687.8940000000001 539.122V528.0360000000001H683.8920000000002V525.874L689.7800000000001 525.138L688.0780000000001 526.564L689.5500000000002 519.02H692.4020000000002L691.8960000000002 526.932L692.0800000000002 527.392V542.204Q692.0800000000002 544.044 692.8390000000002 544.826Q693.5980000000002 545.608 694.9320000000001 545.608Q695.8060000000002 545.608 696.5420000000001 545.332Q697.2780000000001 545.056 697.9680000000002 544.688L699.0260000000002 546.436Q698.5200000000001 546.942 697.738 547.425Q696.9560000000001 547.908 695.9210000000002 548.184Q694.8860000000002 548.46 693.6440000000001 548.46ZM701.3260000000001 548.0V545.792L706.5240000000001 545.332H707.7660000000002L712.7340000000002 545.792V548.0ZM704.9600000000002 548.0Q705.0060000000002 546.62 705.0060000000002 544.918Q705.0060000000002 543.216 705.0290000000002 541.422Q705.0520000000001 539.628 705.0520000000001 538.11V518.376L701.0500000000002 517.686V515.754L707.9500000000002 514.19L709.1920000000001 514.374L709.1000000000001 520.216L709.0540000000002 530.152L709.1920000000001 530.474V538.11Q709.1920000000001 539.628 709.1920000000001 541.422Q709.1920000000001 543.216 709.2150000000001 544.918Q709.2380000000002 546.62 709.2380000000002 548.0ZM716.4600000000002 548.0V545.792L721.5200000000002 545.332H722.8080000000001L727.7760000000002 545.792V548.0ZM719.9560000000001 548.0Q719.9560000000001 546.62 719.9790000000002 544.918Q720.0020000000002 543.216 720.0020000000002 541.4449999999999Q720.0020000000002 539.674 720.0020000000002 538.11V533.648Q720.0020000000002 530.75 719.0590000000002 529.577Q718.1160000000001 528.404 716.0000000000001 528.404Q714.8040000000002 528.404 713.6080000000002 528.749Q712.4120000000001 529.094 711.1930000000002 529.807Q709.9740000000002 530.52 708.6860000000001 531.578L708.2720000000002 529.6H709.6520000000002Q710.5260000000002 528.266 711.7450000000001 527.185Q712.9640000000002 526.104 714.4590000000002 525.46Q715.9540000000002 524.816 717.6560000000002 524.816Q720.9220000000001 524.816 722.5550000000001 526.817Q724.1880000000001 528.818 724.1880000000001 532.912V538.11Q724.1880000000001 539.674 724.1880000000001 541.4449999999999Q724.1880000000001 543.216 724.2110000000001 544.918Q724.2340000000002 546.62 724.2340000000002 548.0ZM742.1740000000001 548.552Q738.7240000000002 548.552 736.2630000000001 547.149Q733.8020000000001 545.746 732.4910000000002 543.1469999999999Q731.1800000000002 540.548 731.1800000000002 537.006Q731.1800000000002 533.418 732.5600000000002 530.681Q733.9400000000002 527.944 736.3780000000002 526.38Q738.8160000000001 524.816 741.9440000000002 524.816Q744.7500000000001 524.816 746.8200000000002 525.8969999999999Q748.8900000000001 526.978 750.0630000000001 529.002Q751.2360000000001 531.026 751.2360000000001 533.832Q751.2360000000001 534.706 751.1210000000001 535.557Q751.0060000000001 536.408 750.8680000000002 536.96H733.6180000000002V534.798H745.6700000000002Q746.6360000000002 534.476 746.9120000000001 533.8779999999999Q747.1880000000001 533.28 747.1880000000001 532.498Q747.1880000000001 530.704 746.5670000000001 529.531Q745.9460000000001 528.358 744.7730000000001 527.7829999999999Q743.6000000000001 527.208 741.9440000000002 527.208Q740.1960000000001 527.208 738.7240000000002 528.174Q737.2520000000002 529.14 736.3780000000002 531.187Q735.5040000000001 533.234 735.5040000000001 536.546Q735.5040000000001 539.352 736.4470000000001 541.3530000000001Q737.3900000000001 543.354 739.1150000000001 544.412Q740.8400000000001 545.47 743.1400000000001 545.47Q745.5780000000001 545.47 747.2110000000001 544.5730000000001Q748.8440000000002 543.676 750.1320000000002 542.204L751.5580000000001 543.354Q750.5460000000002 544.872 749.3040000000001 546.068Q748.0620000000001 547.264 746.3600000000001 547.908Q744.6580000000001 548.552 742.1740000000001 548.552ZM771.4760000000002 528.0360000000001V525.368H779.9400000000002V528.0360000000001ZM775.0640000000002 548.46Q772.4880000000002 548.46 770.9010000000002 547.034Q769.3140000000002 545.608 769.3140000000002 542.618Q769.3140000000002 541.79 769.3140000000002 540.9849999999999Q769.3140000000002 540.18 769.3140000000002 539.122V528.0360000000001H765.3120000000002V525.874L771.2000000000002 525.138L769.4980000000002 526.564L770.9700000000003 519.02H773.8220000000002L773.3160000000003 526.932L773.5000000000002 527.392V542.204Q773.5000000000002 544.044 774.2590000000002 544.826Q775.0180000000003 545.608 776.3520000000002 545.608Q777.2260000000002 545.608 777.9620000000002 545.332Q778.6980000000002 545.056 779.3880000000003 544.688L780.4460000000003 546.436Q779.9400000000002 546.942 779.1580000000001 547.425Q778.3760000000002 547.908 777.3410000000002 548.184Q776.3060000000003 548.46 775.0640000000002 548.46ZM782.8840000000002 548.0V545.792L788.0360000000002 545.332H789.3240000000002L794.2920000000003 545.792V548.0ZM786.4720000000002 548.0Q786.5180000000003 546.62 786.5180000000003 544.918Q786.5180000000003 543.216 786.5410000000002 541.422Q786.5640000000002 539.628 786.5640000000002 538.11V535.718Q786.5640000000002 533.97 786.5410000000002 532.5440000000001Q786.5180000000003 531.118 786.4720000000002 529.6L782.6540000000002 529.416V527.392L789.5080000000003 525.092L790.7960000000003 525.322L790.7040000000002 530.934V538.11Q790.7040000000002 539.628 790.7270000000002 541.422Q790.7500000000002 543.216 790.7500000000002 544.918Q790.7500000000002 546.62 790.7960000000003 548.0ZM788.4960000000002 520.446Q787.2080000000002 520.446 786.3110000000001 519.572Q785.4140000000002 518.698 785.4140000000002 517.41Q785.4140000000002 516.122 786.3110000000001 515.248Q787.2080000000002 514.374 788.4960000000002 514.374Q789.8300000000003 514.374 790.7270000000003 515.248Q791.6240000000003 516.122 791.6240000000003 517.41Q791.6240000000003 518.698 790.7270000000003 519.572Q789.8300000000003 520.446 788.4960000000002 520.446ZM798.0180000000003 548.0V545.792L803.2160000000002 545.332H804.4580000000002L809.3340000000003 545.792V548.0ZM801.6520000000003 548.0Q801.6520000000003 546.62 801.6750000000002 544.918Q801.6980000000002 543.216 801.6980000000002 541.422Q801.6980000000002 539.628 801.6980000000002 538.11V535.718Q801.6980000000002 534.522 801.6980000000002 533.51Q801.6980000000002 532.498 801.6750000000002 531.5550000000001Q801.6520000000003 530.612 801.6520000000003 529.6L797.7880000000002 529.416V527.392L803.7680000000003 525.092L805.0560000000003 525.322L805.7000000000003 530.29L805.8840000000002 530.336V538.11Q805.8840000000002 539.628 805.8840000000002 541.422Q805.8840000000002 543.216 805.9070000000003 544.918Q805.9300000000003 546.62 805.9300000000003 548.0ZM812.7380000000003 548.0V545.792L817.8440000000003 545.332H819.0860000000002L824.0540000000002 545.792V548.0ZM816.2800000000002 548.0Q816.2800000000002 546.62 816.3030000000002 544.918Q816.3260000000002 543.216 816.3260000000002 541.4449999999999Q816.3260000000002 539.674 816.3260000000002 538.11V533.648Q816.3260000000002 530.796 815.4290000000003 529.6Q814.5320000000003 528.404 812.4160000000003 528.404Q811.2660000000002 528.404 810.0930000000002 528.749Q808.9200000000002 529.094 807.7240000000002 529.807Q806.5280000000002 530.52 805.2860000000003 531.532L804.9180000000002 529.646H806.0220000000003Q806.9420000000002 528.312 808.1610000000003 527.2080000000001Q809.3800000000002 526.104 810.8750000000002 525.46Q812.3700000000002 524.816 814.0260000000003 524.816Q817.2920000000003 524.816 818.8790000000002 526.817Q820.4660000000002 528.818 820.4660000000002 532.912V538.11Q820.4660000000002 539.674 820.4890000000003 541.4449999999999Q820.5120000000003 543.216 820.5120000000003 544.918Q820.5120000000003 546.62 820.5580000000002 548.0ZM827.3660000000002 548.0V545.792L832.4720000000002 545.332H833.7140000000003L838.6820000000002 545.792V548.0ZM830.9080000000002 548.0Q830.9080000000002 546.62 830.9310000000003 544.918Q830.9540000000003 543.216 830.9540000000003 541.4449999999999Q830.9540000000003 539.674 830.9540000000003 538.11V533.602Q830.9540000000003 530.704 830.0340000000003 529.554Q829.1140000000003 528.404 826.9980000000003 528.404Q825.8940000000002 528.404 824.7440000000003 528.749Q823.5940000000003 529.094 822.3980000000003 529.7840000000001Q821.2020000000002 530.474 819.9140000000002 531.532L819.4540000000003 529.692H820.5580000000002Q821.5240000000002 528.22 822.7660000000003 527.116Q824.0080000000003 526.012 825.4800000000002 525.414Q826.9520000000002 524.816 828.6540000000002 524.816Q831.8280000000002 524.816 833.4610000000002 526.748Q835.0940000000003 528.68 835.0940000000003 532.682V538.11Q835.0940000000003 539.674 835.1170000000002 541.4449999999999Q835.1400000000002 543.216 835.1400000000002 544.918Q835.1400000000002 546.62 835.1860000000003 548.0ZM853.1720000000001 548.552Q849.7220000000002 548.552 847.2610000000002 547.149Q844.8000000000002 545.746 843.4890000000003 543.1469999999999Q842.1780000000002 540.548 842.1780000000002 537.006Q842.1780000000002 533.418 843.5580000000002 530.681Q844.9380000000002 527.944 847.3760000000002 526.38Q849.8140000000002 524.816 852.9420000000002 524.816Q855.7480000000002 524.816 857.8180000000002 525.8969999999999Q859.8880000000001 526.978 861.0610000000001 529.002Q862.2340000000002 531.026 862.2340000000002 533.832Q862.2340000000002 534.706 862.1190000000001 535.557Q862.0040000000001 536.408 861.8660000000002 536.96H844.6160000000002V534.798H856.6680000000002Q857.6340000000002 534.476 857.9100000000002 533.8779999999999Q858.1860000000001 533.28 858.1860000000001 532.498Q858.1860000000001 530.704 857.5650000000002 529.531Q856.9440000000002 528.358 855.7710000000002 527.7829999999999Q854.5980000000002 527.208 852.9420000000002 527.208Q851.1940000000002 527.208 849.7220000000002 528.174Q848.2500000000002 529.14 847.3760000000002 531.187Q846.5020000000002 533.234 846.5020000000002 536.546Q846.5020000000002 539.352 847.4450000000002 541.3530000000001Q848.3880000000001 543.354 850.1130000000002 544.412Q851.8380000000002 545.47 854.1380000000001 545.47Q856.5760000000001 545.47 858.2090000000002 544.5730000000001Q859.8420000000002 543.676 861.1300000000002 542.204L862.5560000000002 543.354Q861.5440000000002 544.872 860.3020000000001 546.068Q859.0600000000002 547.264 857.3580000000002 547.908Q855.6560000000002 548.552 853.1720000000001 548.552ZM871.4800000000002 548.552Q870.1000000000003 548.552 869.1570000000002 547.586Q868.2140000000002 546.62 868.2140000000002 545.286Q868.2140000000002 543.906 869.1570000000002 542.94Q870.1000000000003 541.974 871.4800000000002 541.974Q872.8600000000002 541.974 873.8260000000002 542.94Q874.7920000000003 543.906 874.7920000000003 545.286Q874.7920000000003 546.62 873.8260000000002 547.586Q872.8600000000002 548.552 871.4800000000002 548.552Z" fill="#a79f9d"/>
</svg>
